<svg width="183" height="183" viewBox="0 0 183 183" fill="none" xmlns="http://www.w3.org/2000/svg">
<circle cx="91.5" cy="91.5" r="84.5" fill="#395863" stroke="#E6E7E8" stroke-width="13"/>
<path d="M91.5 48C103.856 48 114 58.2266 114 71C114 83.7734 103.856 94 91.5 94C79.1438 94 69 83.7734 69 71C69 58.2266 79.1438 48 91.5 48Z" fill="#E6E7E8" stroke="#E6E7E8" stroke-width="8"/>
<mask id="path-3-inside-1_358_4" fill="white">
<path d="M134 139C134 127.596 129.47 116.658 121.406 108.594C113.342 100.53 102.404 96 91 96C79.5957 96 68.6585 100.53 60.5944 108.594C52.5303 116.658 48 127.596 48 139L91 139H134Z"/>
</mask>
<path d="M134 139C134 127.596 129.47 116.658 121.406 108.594C113.342 100.53 102.404 96 91 96C79.5957 96 68.6585 100.53 60.5944 108.594C52.5303 116.658 48 127.596 48 139L91 139H134Z" fill="#E6E7E8" stroke="#E6E7E8" stroke-width="16" mask="url(#path-3-inside-1_358_4)"/>
</svg>
