<?xml version="1.0" encoding="UTF-8"?>
<svg xmlns="http://www.w3.org/2000/svg" version="1.1" viewBox="0 0 1916 250">
  <defs>
    <style>
      .cls-1 {
        fill: #395863;
      }

      .cls-2 {
        fill: #ff7934;
      }
    </style>
  </defs>
  <!-- Generator: Adobe Illustrator 28.7.6, SVG Export Plug-In . SVG Version: 1.2.0 Build 188)  -->
  <g>
    <g id="Lag_1">
      <path class="cls-2" d="M-4,30c11.88-.19,29.74.13,51.13,3,49.6,6.65,67.38,20.19,98.26,28,64.9,16.42,84.07-18.67,168.44-15,45.25,1.97,68.82,13.33,104.08,23,183.04,50.21,350.91-35.63,483.45-17,51.37,7.22,108.6,17.31,108.6,17.31,26.45,4.66,41.19,8.04,47.29,8.69,71.57,7.62,147.38-15.18,230.4-34,116.42-26.39,174.63-39.59,232.4-23,37.53,10.78,52.65,24.53,106.72,35,38.1,7.38,78.17,15.13,127.67,6,52.94-9.77,89.18-33.78,165.76-33,.34,0,.62,0,.8,0l-.5,146c-641.5-.33-1283-.67-1924.5-1V30Z"/>
      <path class="cls-1" d="M-3,105.17c16.41-.29,40.86-.17,70.16,2.13,133.35,10.46,163.38,50.58,247.58,59.51,87.62,9.3,116.21-27.6,190.43-48.66,35.19-9.98,60.78-12.11,103.26-13.69,127.77-4.77,165.58,49.43,275.65,54.68,142.98,6.82,297.63-74.22,392.91-66.02,15.5,1.33,30.86,3.8,30.86,3.8,54.74,9.96,106.46,31.62,106.46,31.62,10.6,4.56,123.85,52.06,233.55,42.51,61.2-5.33,131.28-29.29,162.38-42.51,12.3-5.23,54.31-23.99,109.96-23.39.34,0,.62,0,.8,0l-.5,160.83H-4c.33-53.61.67-107.22,1-160.83Z"/>
      <path class="cls-1" d="M1155,373"/>
      <path class="cls-1" d="M1,250"/>
      <path class="cls-1" d="M1-63"/>
      <path class="cls-2" d="M-147-351"/>
      <path class="cls-1" d="M309,373"/>
      <path class="cls-1" d="M620,342"/>
      <path class="cls-1" d="M628-126"/>
      <path class="cls-2" d="M1703,366"/>
      <path class="cls-2" d="M771,73"/>
      <path class="cls-2" d="M119,388"/>
      <path class="cls-2" d="M792,317"/>
      <path class="cls-2" d="M831,318"/>
      <path class="cls-2" d="M1704,314"/>
      <path class="cls-2" d="M2026,141C1357.67,116,689.33,91,21,66"/>
    </g>
  </g>
</svg>